<svg xmlns="http://www.w3.org/2000/svg" width="500" height="400" viewBox="0 0 500 400">
  <!-- Background -->
  <rect width="500" height="400" fill="#f3f4f6" rx="20" ry="20"/>
  
  <!-- Decorative Elements -->
  <circle cx="400" cy="100" r="60" fill="#4f46e5" opacity="0.1"/>
  <circle cx="100" cy="300" r="80" fill="#10b981" opacity="0.1"/>
  
  <!-- Team Illustration -->
  <!-- Person 1 -->
  <circle cx="150" cy="150" r="40" fill="#d1d5db"/>
  <circle cx="150" cy="150" r="38" fill="#ffffff"/>
  <circle cx="150" cy="130" r="20" fill="#d1d5db"/>
  <rect x="130" y="150" width="40" height="50" rx="10" ry="10" fill="#d1d5db"/>
  
  <!-- Person 2 -->
  <circle cx="250" cy="150" r="40" fill="#4f46e5" opacity="0.8"/>
  <circle cx="250" cy="150" r="38" fill="#ffffff"/>
  <circle cx="250" cy="130" r="20" fill="#4f46e5" opacity="0.8"/>
  <rect x="230" y="150" width="40" height="50" rx="10" ry="10" fill="#4f46e5" opacity="0.8"/>
  
  <!-- Person 3 -->
  <circle cx="350" cy="150" r="40" fill="#10b981" opacity="0.8"/>
  <circle cx="350" cy="150" r="38" fill="#ffffff"/>
  <circle cx="350" cy="130" r="20" fill="#10b981" opacity="0.8"/>
  <rect x="330" y="150" width="40" height="50" rx="10" ry="10" fill="#10b981" opacity="0.8"/>
  
  <!-- Connection Lines -->
  <line x1="190" y1="150" x2="210" y2="150" stroke="#d1d5db" stroke-width="3" stroke-dasharray="5,5"/>
  <line x1="290" y1="150" x2="310" y2="150" stroke="#d1d5db" stroke-width="3" stroke-dasharray="5,5"/>
  
  <!-- Project Elements -->
  <rect x="100" y="250" width="300" height="100" rx="10" ry="10" fill="#ffffff" stroke="#d1d5db" stroke-width="2"/>
  
  <!-- Project Content -->
  <rect x="120" y="270" width="100" height="15" rx="3" ry="3" fill="#e5e7eb"/>
  <rect x="120" y="295" width="260" height="10" rx="2" ry="2" fill="#e5e7eb"/>
  <rect x="120" y="315" width="200" height="10" rx="2" ry="2" fill="#e5e7eb"/>
  <rect x="120" y="335" width="230" height="10" rx="2" ry="2" fill="#e5e7eb"/>
  
  <!-- Floating Elements -->
  <circle cx="50" cy="50" r="15" fill="#4f46e5"/>
  <circle cx="450" cy="350" r="20" fill="#10b981"/>
  <rect x="400" cy="50" width="30" height="30" rx="6" ry="6" fill="#f59e0b"/>
</svg>