<svg xmlns="http://www.w3.org/2000/svg" width="600" height="400" viewBox="0 0 600 400">
  <!-- Background -->
  <rect width="600" height="400" fill="#f3f4f6" rx="20" ry="20"/>
  
  <!-- Decorative Elements -->
  <circle cx="150" cy="100" r="80" fill="#4f46e5" opacity="0.1"/>
  <circle cx="450" cy="300" r="100" fill="#10b981" opacity="0.1"/>
  
  <!-- Device Frame -->
  <rect x="150" y="80" width="300" height="200" rx="10" ry="10" fill="#ffffff" stroke="#d1d5db" stroke-width="2"/>
  
  <!-- Screen Content -->
  <rect x="170" y="100" width="260" height="30" rx="5" ry="5" fill="#e5e7eb"/>
  <rect x="170" y="145" width="180" height="15" rx="3" ry="3" fill="#e5e7eb"/>
  <rect x="170" y="170" width="220" height="15" rx="3" ry="3" fill="#e5e7eb"/>
  <rect x="170" y="195" width="160" height="15" rx="3" ry="3" fill="#e5e7eb"/>
  
  <!-- Buttons -->
  <rect x="170" y="230" width="80" height="30" rx="5" ry="5" fill="#4f46e5"/>
  <rect x="260" y="230" width="80" height="30" rx="5" ry="5" fill="#ffffff" stroke="#4f46e5" stroke-width="2"/>
  
  <!-- Code Elements -->
  <rect x="450" y="100" width="100" height="200" rx="5" ry="5" fill="#1f2937"/>
  <rect x="460" y="110" width="80" height="8" rx="2" ry="2" fill="#10b981"/>
  <rect x="460" y="125" width="60" height="8" rx="2" ry="2" fill="#4f46e5"/>
  <rect x="460" y="140" width="70" height="8" rx="2" ry="2" fill="#ffffff" opacity="0.7"/>
  <rect x="460" y="155" width="50" height="8" rx="2" ry="2" fill="#ffffff" opacity="0.7"/>
  <rect x="460" y="170" width="65" height="8" rx="2" ry="2" fill="#10b981"/>
  <rect x="460" y="185" width="55" height="8" rx="2" ry="2" fill="#4f46e5"/>
  <rect x="460" y="200" width="75" height="8" rx="2" ry="2" fill="#ffffff" opacity="0.7"/>
  <rect x="460" y="215" width="60" height="8" rx="2" ry="2" fill="#ffffff" opacity="0.7"/>
  <rect x="460" y="230" width="70" height="8" rx="2" ry="2" fill="#10b981"/>
  <rect x="460" y="245" width="50" height="8" rx="2" ry="2" fill="#4f46e5"/>
  <rect x="460" y="260" width="65" height="8" rx="2" ry="2" fill="#ffffff" opacity="0.7"/>
  <rect x="460" y="275" width="55" height="8" rx="2" ry="2" fill="#10b981"/>
  
  <!-- Floating Elements -->
  <circle cx="100" cy="200" r="20" fill="#4f46e5"/>
  <circle cx="500" cy="80" r="15" fill="#10b981"/>
  <rect x="80" cy="250" width="40" height="40" rx="8" ry="8" fill="#f59e0b"/>
</svg>