<svg xmlns="http://www.w3.org/2000/svg" width="60" height="60" viewBox="0 0 60 60">
  <!-- Background Circle -->
  <circle cx="30" cy="30" r="30" fill="#10b981" opacity="0.2"/>
  
  <!-- Profile Picture -->
  <circle cx="30" cy="30" r="28" fill="#ffffff"/>
  
  <!-- Person Illustration -->
  <circle cx="30" cy="25" r="12" fill="#d1d5db"/>
  <path d="M30 38 Q 30 50 30 55 Q 20 50 15 42 Q 25 38 30 38 Q 35 38 45 42 Q 40 50 30 55" fill="#d1d5db"/>
  
  <!-- Face Features -->
  <circle cx="26" cy="22" r="2" fill="#10b981"/>
  <circle cx="34" cy="22" r="2" fill="#10b981"/>
  <path d="M26 30 Q 30 33 34 30" fill="none" stroke="#10b981" stroke-width="1.5" stroke-linecap="round"/>
  
  <!-- Additional Feature - Glasses -->
  <path d="M24 22 Q 20 22 18 22 Q 17 22 17 21" fill="none" stroke="#1f2937" stroke-width="1" stroke-linecap="round"/>
  <path d="M36 22 Q 40 22 42 22 Q 43 22 43 21" fill="none" stroke="#1f2937" stroke-width="1" stroke-linecap="round"/>
  <rect x="22" y="20" width="8" height="4" rx="2" ry="2" fill="none" stroke="#1f2937" stroke-width="1"/>
  <rect x="34" y="20" width="8" height="4" rx="2" ry="2" fill="none" stroke="#1f2937" stroke-width="1"/>
  <line x1="30" y1="22" x2="34" y2="22" stroke="#1f2937" stroke-width="1"/>
</svg>