<svg xmlns="http://www.w3.org/2000/svg" width="60" height="60" viewBox="0 0 60 60">
  <!-- Background Circle -->
  <circle cx="30" cy="30" r="30" fill="#f59e0b" opacity="0.2"/>
  
  <!-- Profile Picture -->
  <circle cx="30" cy="30" r="28" fill="#ffffff"/>
  
  <!-- Person Illustration -->
  <circle cx="30" cy="25" r="12" fill="#d1d5db"/>
  <path d="M30 38 Q 30 50 30 55 Q 20 50 15 42 Q 25 38 30 38 Q 35 38 45 42 Q 40 50 30 55" fill="#d1d5db"/>
  
  <!-- Face Features -->
  <circle cx="26" cy="22" r="2" fill="#f59e0b"/>
  <circle cx="34" cy="22" r="2" fill="#f59e0b"/>
  <path d="M26 30 Q 30 33 34 30" fill="none" stroke="#f59e0b" stroke-width="1.5" stroke-linecap="round"/>
  
  <!-- Additional Feature - Hair -->
  <path d="M18 20 Q 20 10 30 15 Q 40 10 42 20" fill="none" stroke="#1f2937" stroke-width="2" stroke-linecap="round"/>
  <path d="M18 20 Q 22 15 25 18" fill="none" stroke="#1f2937" stroke-width="2" stroke-linecap="round"/>
  <path d="M42 20 Q 38 15 35 18" fill="none" stroke="#1f2937" stroke-width="2" stroke-linecap="round"/>
</svg>